# xmcd
#
# Track frame offsets:
#	150
#	13820
#	24372
#	65725
#	88705
#	101195
#	114377
#	129157
#	141627
#	156190
#	169567
#	184457
#	198727
#	213315
#
# Disc length: 3017
#
# Revision: 2
# Processed by: cddbd v1.5.1PL0 Copyright (c) Steve Scherf et al.
# Submitted via: CDex 1.51
# Normalized: r1:TDELIM( - )
#
DISCID=cd0bc70e
DTITLE=Jazz and Tzaz - 124 - Classic Jazz Anthology
DYEAR=2003
DGENRE=Jazz
TTITLE0=Sidney Bechet - When the Saints Go Marching In
TTITLE1=Art Tatum - Humoresque
TTITLE2=Charlie Christian - Swing to Bop
TTITLE3=Coleman Hawkins - The Man I Love
TTITLE4=Django Reinhardt - Echoes of France (La Marseillaise)
TTITLE5=Erroll Garner - Frankie and Johnny
TTITLE6=Fletcher Henderson - The Stampede
TTITLE7=James P. Johnson - Carolina Shout
TTITLE8=Jelly Roll Morton - High Society
TTITLE9=Kid Ory - Mahogany Hall Stomp
TTITLE10=Lester Young - I Got Rhythm
TTITLE11=Meade "Lux" Lewis - Honky Tonk Train Blues
TTITLE12=Pee Wee Russell - Hello Lola
TTITLE13=Scott Joplin - Maple Leaf Rag
EXTD=YEAR: 2003
EXTT0=
EXTT1=
EXTT2=
EXTT3=
EXTT4=
EXTT5=
EXTT6=
EXTT7=
EXTT8=
EXTT9=
EXTT10=
EXTT11=
EXTT12=
EXTT13=
PLAYORDER=
